<?xml version="1.0" standalone="no"?>
<!DOCTYPE svg PUBLIC "-//W3C//DTD SVG 20010904//EN"
 "http://www.w3.org/TR/2001/REC-SVG-20010904/DTD/svg10.dtd">
<svg version="1.0" xmlns="http://www.w3.org/2000/svg"
 width="700.000000pt" height="700.000000pt" viewBox="0 0 700.000000 700.000000"
 preserveAspectRatio="xMidYMid meet">
<metadata>
Created by potrace 1.14, written by Peter Selinger 2001-2017
</metadata>
<g transform="translate(0.000000,700.000000) scale(0.100000,-0.100000)"
fill="#000000" stroke="none">
<path d="M2554 6406 c-56 -14 -130 -62 -162 -105 -48 -66 -55 -96 -57 -286
l-2 -180 -739 -1 c-407 0 -757 -4 -779 -8 -130 -24 -229 -148 -229 -286 1
-111 59 -206 158 -258 l51 -27 1283 -3 c705 -1 1282 -4 1282 -6 0 -16 -86
-317 -110 -386 -5 -14 -23 -65 -40 -115 -17 -49 -38 -104 -46 -122 -8 -17 -14
-34 -14 -38 0 -37 -260 -569 -330 -675 -5 -8 -17 -28 -26 -45 -9 -16 -50 -82
-92 -145 l-74 -114 -19 23 c-23 29 -156 238 -194 306 -117 209 -194 363 -250
495 -50 119 -97 174 -179 211 -192 84 -406 -60 -406 -273 0 -63 27 -132 151
-383 156 -317 264 -499 463 -782 l57 -83 -193 -193 c-106 -106 -217 -213 -247
-238 -30 -24 -61 -51 -70 -60 -9 -8 -38 -33 -66 -55 -27 -21 -52 -42 -55 -45
-12 -14 -243 -181 -340 -246 -58 -38 -161 -102 -230 -142 -69 -40 -132 -76
-140 -81 -8 -5 -55 -30 -105 -55 -49 -26 -104 -59 -122 -75 -156 -140 -121
-382 68 -481 35 -18 60 -23 124 -23 79 0 82 1 200 62 542 282 984 607 1415
1043 l135 137 72 -73 c81 -82 147 -115 233 -115 105 0 212 66 262 162 29 56
34 172 11 232 -19 47 -36 72 -101 141 -100 108 -107 116 -96 123 7 4 63 84
126 177 399 593 656 1187 822 1907 l6 27 248 3 c273 3 279 5 360 74 176 151
95 456 -133 500 -22 4 -373 8 -779 8 l-739 1 -2 180 c-2 167 -4 184 -25 230
-62 129 -198 194 -336 161z"/>
<path d="M4630 4080 c-61 -8 -134 -46 -176 -92 -26 -29 -134 -222 -139 -248 0
-3 -7 -16 -15 -30 -15 -26 -52 -101 -55 -110 0 -3 -37 -75 -80 -160 -44 -85
-84 -166 -90 -180 -6 -14 -206 -414 -445 -890 -238 -476 -434 -867 -435 -870
0 -3 -7 -16 -15 -30 -74 -133 -252 -511 -257 -544 -3 -22 -6 -43 -6 -46 -6
-28 19 -116 43 -153 42 -67 87 -103 155 -125 106 -35 227 -8 300 68 17 17 114
196 220 408 l190 377 841 1 842 2 182 -367 c101 -201 195 -381 209 -399 104
-131 311 -142 431 -22 56 56 83 122 83 208 l1 72 -752 1504 c-779 1558 -775
1551 -856 1593 -47 25 -126 39 -176 33z m310 -1487 c148 -298 270 -544 270
-546 0 -2 -245 -4 -545 -4 -300 0 -544 3 -543 7 10 25 543 1087 545 1086 2 -1
124 -246 273 -543z"/>
</g>
</svg>
